<mxfile host="app.diagrams.net" modified="2024-04-24T07:20:35.425Z" agent="Mozilla/5.0 (Windows NT 10.0; Win64; x64) AppleWebKit/537.36 (KHTML, like Gecko) Chrome/119.0.0.0 Safari/537.36" version="24.0.5" etag="8M7eHOmQ6BMAP5eXAi5J" type="github">
  <diagram name="第 1 页" id="niywz-rfBfuO33QPNZNq">
    <mxGraphModel>
      <root>
        <mxCell id="0" />
        <mxCell id="1" parent="0" />
      </root>
    </mxGraphModel>
  </diagram>
</mxfile>
